<svg height="209" viewBox="0 0 163 209" width="163" xmlns="http://www.w3.org/2000/svg"><g fill="#ff8a3b" fill-rule="evenodd" transform="translate(.5)"><path d="m115.806789 34.2806498-57.4134681 32.9899489c-1.0443333 80.9002073 6.7204538 122.6533963 23.2943612 125.2595683 16.019687 2.519023 16.019687 4.608595 0 6.268716l-23.2943612-6.268716-40.9053603-46.557603-11.99225164-93.7129174 76.19197314-43.4306373 41.1621149 22.6168013z" opacity=".4"/><path d="m56.6782787 61.5364169v68.0139341h68.0139343v-68.0139341zm58.2976583 9.7162763v31.7801588l-15.5707138 7.084947s-18.620207-21.758891-24.5283827-21.758891c-3.4885334 0-7.3889226 3.5560632-10.1016649 6.6153927v-23.7216075zm-22.6713117 13.7647237c0-4.9176584 3.9851813-8.9065855 8.9065867-8.9065855 4.917659 0 8.906587 3.9851808 8.906587 8.9065855 0 4.9176585-3.98858 8.9065856-8.906587 8.9065856-4.9176591.0034065-8.9065867-3.9851808-8.9065867-8.9065856zm-41.3352493-5.6678267v57.3570908h55.909664v10.656844h-68.0139346v-68.0139348z"/><path d="m161.528887 47.6895917c0-3.1098521-1.69825-5.9567656-4.437266-7.4348844l-73.3411117-39.24457301c-2.4980519-1.34684572-5.5221807-1.34684572-8.0201765 0l-71.38052417 39.24457301c-2.69528865 1.4891914-4.36069397 4.3143802-4.34975507 7.3802223v55.4722044c0 21.43987 6.26714775 42.409367 18.03431794 60.344137 11.7562312 17.924959 28.508454 32.029178 48.1872531 40.570479l9.7622663 4.204776c2.1036344.897887 4.4813023.897887 6.5849368 0l11.2193837-4.741305c20.0501606-8.31088 37.1866476-22.392674 49.2502896-40.43873 12.052143-18.045495 18.494593-39.255786 18.494593-60.946822zm-17.000115 54.7559703c.021868 18.414255-5.385506 36.434878-15.555548 51.767456s-24.644182 27.297941-41.5756091 34.371255l-7.9745078 3.312185-6.4887257-2.80765c-16.6151426-7.249354-30.7615324-19.214998-40.7031003-34.427408-9.940729-15.21185-15.2277975-33.012353-15.2277975-51.205926v-50.5377058l62.8458106-34.69975 64.6803168 34.755903z"/></g></svg>