<svg height="42" viewBox="0 0 123 42" width="123" xmlns="http://www.w3.org/2000/svg"><g fill="none" fill-rule="evenodd" transform=""><g fill="#ff8a3b"><path d="m22.875415 6.85612996-11.3409319 6.59798974c-.206288 16.1800415 1.3274971 24.5306794 4.6013553 25.0519137 3.1643827.5038047 3.1643827.9217191 0 1.2537432l-4.6013553-1.2537432-8.08007113-9.3115205-2.36883983-18.7425836 15.05026626-8.68612744 8.1307883 4.52336025z" opacity=".4"/><path d="m11.1957094 12.3072834v13.6027869h13.4348512v-13.6027869zm11.5155868 1.9432552v6.3560318l-3.0756965 1.4169893s-3.6780656-4.3517781-4.8451127-4.3517781c-.689093 0-1.4595403.7112126-1.9953906 1.3230785v-4.7443215zm-4.4782838 2.7529448c0-.9835317.7871963-1.7813171 1.7593258-1.7813171.9713894 0 1.7593257.7970361 1.7593257 1.7813171 0 .9835317-.7878675 1.7813171-1.7593257 1.7813171-.9713895.0006813-1.7593258-.7970362-1.7593258-1.7813171zm-8.1649875-1.1335654v11.4714182h11.0438842v2.1313687h-13.43485125v-13.6027869z"/><path d="m31.9069406 9.53791834c0-.62197042-.3354568-1.19135311-.876497-1.48697688l-14.4871331-7.8489146c-.4934424-.26936915-1.0908011-.26936915-1.5842324 0l-14.09985664 7.8489146c-.5324027.29783828-.86137165.86287604-.85921088 1.47604446v11.09444078c0 4.2879742 1.23795511 8.4818735 3.5623344 12.0688275 2.32221852 3.5849917 5.63129957 6.4058356 9.51846972 8.1140958l1.9283489.8409551c.4155328.1795776.8851956.1795776 1.3007283 0l2.2161745-.948261c3.9605256-1.6621758 7.3455106-4.4785346 9.7284523-8.0877459 2.3806702-3.6090991 3.653253-7.8511571 3.653253-12.1893643zm-3.3580474 10.95119396c.0043197 3.6828511-1.0638036 7.2869756-3.0727008 10.3534913-2.0088972 3.0665156-4.8679866 5.4595883-8.212466 6.874251l-1.5752114.662437-1.2817236-.5615301c-3.2820035-1.4498706-6.07635209-3.8429994-8.0401186-6.8854816-1.96360079-3.0423698-3.00795999-6.6024704-3.00795999-10.2411852v-10.1075411l12.41398729-6.93994997 12.7763588 6.95118057z"/></g><text fill="#b75513" font-family="Roboto-Bold, Roboto" font-size="30" font-weight="bold"><tspan x="45" y="31">Cover</tspan></text></g></svg>