<svg height="11" viewBox="0 0 125 11" width="125" xmlns="http://www.w3.org/2000/svg" xmlns:xlink="http://www.w3.org/1999/xlink"><mask id="a" fill="#fff"><path d="m.0409264.01673945h2.30935171v2.41935565h-2.30935171z" fill="none"/></mask><g fill="#333" fill-rule="evenodd" transform=""><path d="m3.44299964 4.89735158c.78397969 0 1.44172537-.65983376 1.44172537-1.52499553 0-.80634748-.65774568-1.42233153-1.44172537-1.42233153h-1.62343592v2.94732706zm-3.44286676-4.47232259c0-.14651372.11194964-.27841087.26575583-.27841087h3.28906057c1.72176558 0 3.13525439 1.46618124 3.13525439 3.24070251 0 1.81802297-1.41348881 3.29916879-3.12130221 3.29916879h-1.74933774v3.44568248c0 .1465137-.12590182.2784109-.26608802.2784109h-1.28758699c-.15380619 0-.26575583-.1318972-.26575583-.2784109z"/><path d="m12.3306718 8.65109571c1.7636221 0 3.2189675-1.51037896 3.2189675-3.35763507 0-1.84760413-1.4553454-3.38721623-3.2189675-3.38721623s-3.20534747 1.5396121-3.20534747 3.38721623c0 1.84725611 1.44172537 3.35763507 3.20534747 3.35763507m0-8.6509217c2.7990733 0 5.0383983 2.36057615 5.0383983 5.29328663 0 2.93236247-2.239325 5.26370546-5.0383983 5.26370546-2.79940544 0-5.02477831-2.33134299-5.02477831-5.26370546 0-2.93271048 2.22537287-5.29328663 5.02477831-5.29328663"/><path d="m22.4775283 4.82412952c.741791 0 1.3855845-.67445033 1.3855845-1.49576239 0-.77711434-.6437935-1.42198351-1.3855845-1.42198351h-2.2815138v2.9177459zm-4.1148968-4.39889172c0-.14686173.1119497-.27841087.266088-.27841087h4.002615c1.6795769 0 3.0512091 1.40736694 3.0512091 3.15230706 0 1.34890065-.8534084 2.44862358-2.0712345 2.96194362l1.9174283 3.72444139c.0979975.1903634 0 .4252726-.2378514.4252726h-1.4696298c-.1259018 0-.1959949-.0734309-.2238992-.1322452l-1.8616196-3.88557164h-1.553675v3.73905794c0 .1465137-.1259019.2787589-.2657559.2787589h-1.287587c-.1541383 0-.266088-.1322452-.266088-.2787589z"/><path d="m32.1765531 6.90626-1.3995367-3.22608594h-.0418565l-1.3716323 3.22608594zm-6.0462773 3.1230739 4.3527482-9.8679252c.0421888-.08804744.1119497-.1614783.2381837-.1614783h.139854c.139854 0 .1959949.07343086.2378515.1614783l4.3108917 9.8679252c.0840453.1907115-.0279043.3814229-.2378514.3814229h-1.2178261c-.2099471 0-.3079446-.0880474-.4059421-.2933755l-.68565-1.58346176h-4.1849899l-.6859822 1.58346176c-.0558088.1465138-.1820428.2933755-.4056099.2933755h-1.2178261c-.2099471 0-.3218967-.1907114-.2378514-.3814229z"/><path d="m36.879036 1.90627921h-2.1413276c-.1541384 0-.266088-.13189714-.266088-.27875888v-1.20238693c0-.14651372.1119496-.27841087.266088-.27841087h6.1163704c.1541384 0 .266088.13189715.266088.27841087v1.20238693c0 .14686174-.1119496.27875888-.266088.27875888h-2.1413276v8.22564909c0 .1468617-.1259018.2787589-.266088.2787589h-1.3015392c-.1401862 0-.266088-.1318972-.266088-.2787589z"/><path d="m44.5347306 8.9735999.5039395-.90901149c.1119496-.20532801.3498011-.20532801.4757029-.102664.0700931.04419772 1.2038739.90901148 2.1137555.90901148.7275065 0 1.2736348-.49835545 1.2736348-1.12895607 0-.74788119-.601937-1.26120123-1.7779065-1.75955669-1.3154914-.55716975-2.6309827-1.43694809-2.6309827-3.16727164 0-1.30470293.9235015-2.81508189 3.1492065-2.81508189 1.427441 0 2.5190331.76249777 2.7990733.98244235.1401862.08804744.1820428.33722517.0840453.48373889l-.5318439.83592863c-.1119496.17574686-.3218967.29302744-.4896551.17574686-.1122818-.07308285-1.1759695-.80634748-1.9456648-.80634748-.7979319 0-1.2317783.55716975-1.2317783 1.02629207 0 .68941491.5178917 1.15853722 1.6516725 1.6422761 1.3576801.57213434 2.9249751 1.42233153 2.9249751 3.31378536 0 1.51037896-1.2453983 2.90312932-3.2189675 2.90312932-1.7636221 0-2.7994055-.86481375-3.0794457-1.14357263-.1255696-.13189715-.1956627-.20532801-.0697609-.43988917"/><path d="m52.1345168.4251682c0-.14651372.1259019-.27841087.2657559-.27841087h1.3018713c.1541384 0 .2657559.13189715.2657559.27841087v3.88591969h4.5626953v-3.88591969c0-.14651372.1122819-.27841087.2660881-.27841087h1.2879191c.1398541 0 .2657559.13189715.2657559.27841087v9.7067949c0 .1465137-.1259018.2787589-.2657559.2787589h-1.2879191c-.1538062 0-.2660881-.1322452-.2660881-.2787589v-4.04670195h-4.5626953v4.04670195c0 .1465137-.1116175.2787589-.2657559.2787589h-1.3018713c-.139854 0-.2657559-.1322452-.2657559-.2787589z"/><path d="m67.1103561 6.90626-1.3995367-3.22608594h-.0421887l-1.3716323 3.22608594zm-6.0466095 3.1230739 4.3530805-9.8679252c.0418565-.08804744.1119496-.1614783.2378514-.1614783h.1401862c.1395218 0 .1956628.07343086.2378515.1614783l4.3108917 9.8679252c.0837131.1907115-.0282365.3814229-.2378514.3814229h-1.2178261c-.2099471 0-.3079446-.0880474-.4059421-.2933755l-.6859822-1.58346176h-4.1846577l-.6859822 1.58346176c-.056141.1465138-.1820428.2933755-.4059421.2933755h-1.2174939c-.2099471 0-.3218967-.1907114-.2381836-.3814229z"/><path d="m71.3371029.4251682c0-.14651372.1119496-.27841087.2657558-.27841087h1.2879192c.139854 0 .266088.13189715.266088.27841087v8.22599711h3.5687686c.1541384 0 .2657558.13189715.2657558.27841087v1.20238692c0 .1465137-.1116174.2787589-.2657558.2787589h-5.1227758c-.1538062 0-.2657558-.1322452-.2657558-.2787589z"/><path d="m77.8450645.4251682c0-.14651372.1119496-.27841087.2657558-.27841087h5.6968084c.1541384 0 .2657558.13189715.2657558.27841087v1.20238693c0 .14651372-.1116174.27875889-.2657558.27875889h-4.1428012v2.40477387h3.456819c.1401862 0 .266088.13189715.266088.27841087v1.21700351c0 .16113029-.1259018.27875888-.266088.27875888h-3.456819v2.56590416h4.1428012c.1541384 0 .2657558.13189715.2657558.27841087v1.20238692c0 .1465137-.1116174.2787589-.2657558.2787589h-5.6968084c-.1538062 0-.2657558-.1322452-.2657558-.2787589z"/><path d="m84.8008579.52783221c-.0840453-.19071145.0279044-.38107488.2381837-.38107488h1.4274409c.1259019 0 .2099472.08769942.2378515.16113029l2.6871236 6.30496212h.0983297l2.6871236-6.30496212c.0282366-.07343087.1119497-.16113029.2378515-.16113029h1.4281054c.2096149 0 .3215645.19036343.2378514.38107488l-4.3391283 9.86792519c-.0418565.0880475-.1119496.1614783-.2378514.1614783h-.1401862c-.1259018 0-.1956628-.0734308-.2375193-.1614783z"/><path d="m100.99439 2.47810034c0-.55751777-.462083-1.09972293-1.1895892-1.09972293-.6441257 0-1.0357833.45450574-1.0357833.99705892-.0139522.51332004.3079445.8505452.7278387 1.31966751l.3079446.3226086c.2099472-.13189715 1.1895892-.63060062 1.1895892-1.5396121m-1.3297754 6.51029014c1.0497354 0 1.5958634-.61598405 1.8058104-.86516178l-2.0858506-2.31672643c-.2238993.14651372-1.1895895.6302526-1.1895895 1.80375441 0 .80599946.6441257 1.3781338 1.4696297 1.3781338m-1.2035417-4.13509742v-.02923314l-.2939924-.33722517c-.5597482-.61598404-.9656902-1.24658466-.951738-2.11139842 0-1.1143395.8816449-2.37554073 2.645267-2.37554073 1.5676275 0 2.6455995 1.07048978 2.6455995 2.3901573 0 1.51003095-1.427773 2.40477387-1.707814 2.66856817l1.609484 1.70109041c.224232-.46912232.406274-1.07048979.50394-1.62765954.055808-.30799202.139854-.46912231.46175-.36645831l.770028.23456116c.363753.10266401.265756.4252726.237851.57178632-.237851 1.0555252-.68565 1.97950127-.867692 2.33134301l1.24573 1.23162008c.167758.17609487.307945.33722516-.028237.67445032l-.5737.61598408c-.167758.1611303-.391658.1907114-.615889-.0441978l-1.007547-1.07014173c-.252136.30799202-1.231778 1.24623663-3.0515411 1.24623663-1.7772421 0-2.9528795-1.2608532-2.9528795-2.75661559 0-1.93565156 1.6792447-2.78584875 1.9313805-2.94732705"/><path d="m111.883171.0000348c1.413821 0 2.43532.46912231 3.387058 1.36351723.125902.11728058.125902.29337545.013952.41065603l-.853741.92362805c-.097997.11728058-.237851.11728058-.349801 0-.587652-.54255317-1.371632-.86481375-2.155612-.86481375-1.791526 0-3.12097 1.56884524-3.12097 3.41610135 0 1.83298755 1.343396 3.38721622 3.135255 3.38721622.839788 0 1.553675-.33722516 2.141327-.83558061.11195-.10266401.266088-.08804744.349801 0l.868025.93824462c.11195.10266401.083713.29337545-.014284.39603946-.951738.9678258-2.15528 1.4219835-3.40101 1.4219835-2.799406 0-5.052683-2.33099498-5.052683-5.26370547 0-2.93271048 2.253277-5.29328663 5.052683-5.29328663"/><path d="m118.62925 8.9735999c.741458 0 1.343395-.67445033 1.343395-1.51003095 0-.82131206-.601937-1.48114582-1.343395-1.48114582-.755744 0-1.343728.65983376-1.343728 1.48114582 0 .83558062.587984 1.51003095 1.343728 1.51003095m0-4.57498659c1.581579 0 2.869166 1.40771495 2.869166 3.06495564 0 1.68612582-1.287587 3.09349275-2.869166 3.09349275-1.581912 0-2.869499-1.40736693-2.869499-3.09349275 0-1.65724069 1.287587-3.06495564 2.869499-3.06495564"/><path d="m1.18865938.01673945c.62984132 0 1.16168517.55716975 1.16168517 1.21700351s-.53184385 1.20238694-1.16168517 1.20238694c-.62984131 0-1.14773298-.54255318-1.14773298-1.20238694s.51789167-1.21700351 1.14773298-1.21700351" mask="url(#a)" transform="translate(121.915486 8.121141)"/></g></svg>